<?xml version="1.0" standalone="yes"?>

<svg version="1.1" viewBox="0.0 0.0 321.37795275590554 322.01837270341207" fill="none" stroke="none" stroke-linecap="square" stroke-miterlimit="10" xmlns="http://www.w3.org/2000/svg" xmlns:xlink="http://www.w3.org/1999/xlink"><clipPath id="p.0"><path d="m0 0l321.37796 0l0 322.01837l-321.37796 0l0 -322.01837z" clip-rule="nonzero"></path></clipPath><g clip-path="url(#p.0)"><path fill="#000000" fill-opacity="0.0" d="m0 0l321.37796 0l0 322.01837l-321.37796 0z" fill-rule="evenodd"></path><path fill="#ff9c2a" d="m46.04987 160.67192l0 0c0 -65.5262 51.32156 -118.645676 114.62993 -118.645676l0 0c30.401749 0 59.558304 12.5001335 81.05559 34.75051c21.497284 22.250381 33.57434 52.428368 33.57434 83.895164l0 0c0 65.526184 -51.32158 118.645676 -114.62993 118.645676l0 0c-63.308365 0 -114.62993 -53.11949 -114.62993 -118.645676z" fill-rule="evenodd"></path><path fill="#000000" d="m0 160.67717l0 0c0 -88.739555 71.937614 -160.67717 160.67717 -160.67717l0 0c42.614227 0 83.48309 16.928438 113.61592 47.061253c30.132812 30.132816 47.06125 71.00168 47.06125 113.61592l0 0c0 88.73955 -71.93762 160.67717 -160.67717 160.67717l0 0c-88.739555 0 -160.67717 -71.93762 -160.67717 -160.67717zm27.032326 0l0 0c0 73.81 59.83483 133.64482 133.64484 133.64482c73.81 0 133.64482 -59.834824 133.64482 -133.64482l0 0c0 -73.81001 -59.834824 -133.64484 -133.64482 -133.64484l0 0c-73.81001 0 -133.64484 59.83483 -133.64484 133.64484z" fill-rule="evenodd"></path></g></svg>

